<svg width="16" height="16" viewBox="0 0 16 16" fill="none" xmlns="http://www.w3.org/2000/svg">
<path d="M2.66699 11.9866V6.47259C2.66699 4.04992 2.66699 2.83925 3.44833 2.08592C4.22966 1.33259 5.48633 1.33325 8.00033 1.33325C10.5143 1.33325 11.7717 1.33325 12.5523 2.08592C13.3337 2.83792 13.3337 4.04925 13.3337 6.47192V11.9873C13.3337 13.5246 13.3337 14.2933 12.8183 14.5679C11.8203 15.1013 9.94899 13.3233 9.06033 12.7879C8.54499 12.4779 8.28699 12.3226 8.00033 12.3226C7.71366 12.3226 7.45566 12.4779 6.94033 12.7879C6.05166 13.3233 4.18033 15.1013 3.18233 14.5679C2.66699 14.2933 2.66699 13.5246 2.66699 11.9873" stroke="white" stroke-linecap="round" stroke-linejoin="round"/>
</svg>
