<svg width="14" height="15" viewBox="0 0 14 15" fill="none" xmlns="http://www.w3.org/2000/svg">
<path d="M12.3899 11.0934C12.6299 11.3707 12.7499 11.5094 12.7499 11.7501C12.7499 11.9907 12.6299 12.1301 12.3899 12.4067C11.7899 13.0967 10.7079 14.0834 9.41659 14.0834C8.12525 14.0834 7.04259 13.0967 6.44325 12.4067C6.20325 12.1294 6.08325 11.9914 6.08325 11.7501C6.08325 11.5094 6.20325 11.3701 6.44325 11.0934C7.04325 10.4034 8.12525 9.41675 9.41659 9.41675C10.7079 9.41675 11.7906 10.4034 12.3899 11.0934Z" stroke="white" stroke-width="1.5" stroke-linecap="round" stroke-linejoin="round"/>
<path d="M12.0833 8.08533V4.63C12.0833 3.50067 12.0833 2.93667 11.9047 2.48533C11.618 1.76067 11.01 1.18867 10.24 0.918667C9.76133 0.75 9.16133 0.75 7.962 0.75C5.86333 0.75 4.814 0.75 3.97533 1.044C2.62867 1.51733 1.56533 2.518 1.062 3.78667C0.75 4.57667 0.75 5.564 0.75 7.54V9.23733C0.75 11.284 0.75 12.3073 1.31533 13.0187C1.47733 13.222 1.66867 13.4027 1.88533 13.5553C2.49333 13.984 3.31667 14.0673 4.75 14.0833" stroke="white" stroke-width="1.5" stroke-linecap="round" stroke-linejoin="round"/>
<path d="M0.75 7.41667C0.75 6.82736 0.984103 6.26218 1.40081 5.84548C1.81751 5.42877 2.38269 5.19467 2.972 5.19467C3.416 5.19467 3.93933 5.272 4.37067 5.15667C4.55914 5.10594 4.73097 5.00657 4.86892 4.8685C5.00687 4.73043 5.1061 4.55852 5.15667 4.37C5.272 3.93867 5.19467 3.41533 5.19467 2.97133C5.19484 2.38214 5.42902 1.81713 5.84571 1.40057C6.2624 0.984011 6.82747 0.75 7.41667 0.75M9.41133 11.75H9.418" stroke="white" stroke-width="1.5" stroke-linecap="round" stroke-linejoin="round"/>
</svg>
